<?xml version="1.0" encoding="utf-8"?>
<!-- Uploaded to: SVG Repo, www.svgrepo.com, Generator: SVG Repo Mixer Tools -->
<svg fill="rgb(255, 36, 76)" width="800px" height="800px" viewBox="0 0 32 32" version="1.1" xmlns="http://www.w3.org/2000/svg">
<title>shark</title>
<path d="M16.096 1.261c-6.81 4.326-11.739 16.25-11.739 30.186h23.418c0-13.935-4.869-25.86-11.679-30.186zM9.431 16.452l1.146 0.958-0.393-2.198c0.46-0.685 0.95-1.292 1.465-1.811l1.201 1.708 0.246-2.889c0.587-0.372 1.198-0.637 1.826-0.783l1.144 2.262 1.144-2.262c0.624 0.145 1.23 0.407 1.814 0.776l0.258 3.029 1.255-1.786c0.495 0.507 0.966 1.095 1.41 1.755l-0.392 2.198 1.146-0.958c1.523 2.766 2.627 6.468 3.094 10.664-0.626-2.009-1.659-3.774-2.975-5.146l0.25-2.235-1.6 1.042c-0.381-0.283-0.777-0.537-1.188-0.759l-0.208-2.556-1.641 1.801c-0.456-0.13-0.924-0.222-1.401-0.276l-0.968-2.074-0.968 2.074c-0.508 0.057-1.006 0.159-1.49 0.302l-1.55-1.701-0.197 2.425c-0.415 0.224-0.815 0.479-1.199 0.765l-1.6-1.042 0.25 2.234c-1.316 1.371-2.349 3.136-2.975 5.145 0.466-4.195 1.57-7.898 3.094-10.663z"></path>
</svg>